<svg version="1.1" viewBox="0 0 640 640" xmlns="http://www.w3.org/2000/svg">
  <defs></defs>
  <style type="text/css">
	.st1{fill:#1F9900;}
	.st2{fill:#69AD36;}
	.st3{fill:#C0DBA4;}
</style>
  <g id="object" transform="matrix(1.421647, 0, 0, 1.931635, -46.362999, -100.127998)" style="transform-origin: 46.363px 100.128px;">
    <g>
      <path class="st1" d="M62.344,100.128h65.881c8.819,0,15.98,6.776,15.98,15.282v33.882c0,8.434-7.161,15.282-15.98,15.282H62.344
			c-8.895,0-15.98-6.848-15.98-15.282V115.41C46.364,106.903,53.449,100.128,62.344,100.128L62.344,100.128z"></path>
      <path class="st2" d="M59.479,171.135h71.535c7.312,0,13.191,5.623,13.191,12.616v27.898c0,6.992-5.88,12.616-13.191,12.616H59.479
			c-7.236,0-13.116-5.623-13.116-12.616v-27.898C46.364,176.758,52.243,171.135,59.479,171.135L59.479,171.135z"></path>
      <path class="st2" d="M59.479,229.671h71.535c7.312,0,13.191,5.623,13.191,12.543v27.971c0,6.992-5.88,12.543-13.191,12.543H59.479
			c-7.236,0-13.116-5.551-13.116-12.543v-27.971C46.364,235.294,52.243,229.671,59.479,229.671L59.479,229.671z"></path>
      <path class="st2" d="M59.479,288.207h71.535c7.312,0,13.191,5.551,13.191,12.544v27.97c0,6.921-5.88,12.544-13.191,12.544H59.479
			c-7.236,0-13.116-5.623-13.116-12.544v-27.97C46.364,293.758,52.243,288.207,59.479,288.207L59.479,288.207z"></path>
      <path class="st1" d="M165.462,100.128h65.881c8.895,0,15.98,6.776,15.98,15.282v33.882c0,8.434-7.086,15.282-15.98,15.282h-65.881
			c-8.819,0-15.98-6.848-15.98-15.282V115.41C149.482,106.903,156.643,100.128,165.462,100.128L165.462,100.128z"></path>
      <path class="st3" d="M162.673,171.135h71.535c7.236,0,13.116,5.623,13.116,12.616v27.898c0,6.992-5.88,12.616-13.116,12.616
			h-71.535c-7.312,0-13.191-5.623-13.191-12.616v-27.898C149.482,176.758,155.362,171.135,162.673,171.135L162.673,171.135z"></path>
      <path class="st3" d="M162.673,229.671h71.535c7.236,0,13.116,5.623,13.116,12.543v27.971c0,6.992-5.88,12.543-13.116,12.543
			h-71.535c-7.312,0-13.191-5.551-13.191-12.543v-27.971C149.482,235.294,155.362,229.671,162.673,229.671L162.673,229.671z"></path>
      <path class="st3" d="M162.673,288.207h71.535c7.236,0,13.116,5.551,13.116,12.544v27.97c0,6.921-5.88,12.544-13.116,12.544
			h-71.535c-7.312,0-13.191-5.623-13.191-12.544v-27.97C149.482,293.758,155.362,288.207,162.673,288.207L162.673,288.207z"></path>
      <path class="st1" d="M268.656,100.128h65.881c8.819,0,15.98,6.776,15.98,15.282v33.882c0,8.434-7.161,15.282-15.98,15.282h-65.881
			c-8.895,0-15.98-6.848-15.98-15.282V115.41C252.676,106.903,259.762,100.128,268.656,100.128L268.656,100.128z"></path>
      <path class="st3" d="M265.792,171.135h71.535c7.312,0,13.191,5.623,13.191,12.616v27.898c0,6.992-5.88,12.616-13.191,12.616
			h-71.535c-7.236,0-13.116-5.623-13.116-12.616v-27.898C252.676,176.758,258.556,171.135,265.792,171.135L265.792,171.135z"></path>
      <path class="st3" d="M265.792,229.671h71.535c7.312,0,13.191,5.623,13.191,12.543v27.971c0,6.992-5.88,12.543-13.191,12.543
			h-71.535c-7.236,0-13.116-5.551-13.116-12.543v-27.971C252.676,235.294,258.556,229.671,265.792,229.671L265.792,229.671z"></path>
      <path class="st3" d="M265.792,288.207h71.535c7.312,0,13.191,5.551,13.191,12.544v27.97c0,6.921-5.88,12.544-13.191,12.544
			h-71.535c-7.236,0-13.116-5.623-13.116-12.544v-27.97C252.676,293.758,258.556,288.207,265.792,288.207L265.792,288.207z"></path>
      <path class="st1" d="M371.775,100.128h65.881c8.895,0,15.98,6.776,15.98,15.282v33.882c0,8.434-7.086,15.282-15.98,15.282h-65.881
			c-8.819,0-15.98-6.848-15.98-15.282V115.41C355.794,106.903,362.955,100.128,371.775,100.128L371.775,100.128z"></path>
      <path class="st3" d="M368.986,171.135h71.535c7.236,0,13.116,5.623,13.116,12.616v27.898c0,6.992-5.88,12.616-13.116,12.616
			h-71.535c-7.312,0-13.191-5.623-13.191-12.616v-27.898C355.794,176.758,361.674,171.135,368.986,171.135L368.986,171.135z"></path>
      <path class="st3" d="M368.986,229.671h71.535c7.236,0,13.116,5.623,13.116,12.543v27.971c0,6.992-5.88,12.543-13.116,12.543
			h-71.535c-7.312,0-13.191-5.551-13.191-12.543v-27.971C355.794,235.294,361.674,229.671,368.986,229.671L368.986,229.671z"></path>
      <path class="st3" d="M368.986,288.207h71.535c7.236,0,13.116,5.551,13.116,12.544v27.97c0,6.921-5.88,12.544-13.116,12.544
			h-71.535c-7.312,0-13.191-5.623-13.191-12.544v-27.97C355.794,293.758,361.674,288.207,368.986,288.207L368.986,288.207z"></path>
      <path class="st2" d="M59.479,346.743h71.535c7.312,0,13.191,5.623,13.191,12.616v27.899c0,6.992-5.88,12.616-13.191,12.616H59.479
			c-7.236,0-13.116-5.623-13.116-12.616v-27.899C46.364,352.366,52.243,346.743,59.479,346.743L59.479,346.743z"></path>
      <path class="st3" d="M162.673,346.743h71.535c7.236,0,13.116,5.623,13.116,12.616v27.899c0,6.992-5.88,12.616-13.116,12.616
			h-71.535c-7.312,0-13.191-5.623-13.191-12.616v-27.899C149.482,352.366,155.362,346.743,162.673,346.743L162.673,346.743z"></path>
      <path class="st3" d="M265.792,346.743h71.535c7.312,0,13.191,5.623,13.191,12.616v27.899c0,6.992-5.88,12.616-13.191,12.616
			h-71.535c-7.236,0-13.116-5.623-13.116-12.616v-27.899C252.676,352.366,258.556,346.743,265.792,346.743L265.792,346.743z"></path>
      <path class="st3" d="M368.986,346.743h71.535c7.236,0,13.116,5.623,13.116,12.616v27.899c0,6.992-5.88,12.616-13.116,12.616
			h-71.535c-7.312,0-13.191-5.623-13.191-12.616v-27.899C355.794,352.366,361.674,346.743,368.986,346.743L368.986,346.743z"></path>
    </g>
  </g>
  <g transform="matrix(2.027344, 0, 0, 2.027344, 120.999939, 192.362442)">
    <path d="M204.8,0 L256,0 L128,220.8 L0,0 L50.56,0 L97.92,0 L128,51.2 L157.44,0 L204.8,0 Z" fill="#41B883"></path>
    <path d="M0,0 L128,220.8 L256,0 L204.8,0 L128,132.48 L50.56,0 L0,0 Z" fill="#41B883"></path>
    <path d="M50.56,0 L128,133.12 L204.8,0 L157.44,0 L128,51.2 L97.92,0 L50.56,0 Z" fill="#35495E"></path>
  </g>
</svg>